# xmcd CD database file
#
# Track frame offsets:
#	150
#	14446
#	27056
#	46293
#	61056
#	68630
#	80805
#	103956
#	111787
#	128270
#	140433
#	155775
#	170305
#	185409
#	195533
#	211551
#	224761
#
# Disc length: 3165 seconds
#
# Revision: 1
# Processed by: cddbd v1.5.1PL2 Copyright (c) Steve Scherf et al.
# Submitted via: CDex 1.51
#
DISCID=ea0c5b11
DTITLE=Various Artist - SCOTLAND
DYEAR=2005
DGENRE=New Age
TTITLE0=Atholl Highlanders
TTITLE1=Lord Lovat's Restoration
TTITLE2=Andrew Carr
TTITLE3=My Wife's A Waution Wee thing
TTITLE4=Drummond Castle
TTITLE5=Chi Mi Na Mor-bheanna
TTITLE6=The Favourite Dream - The Lisnagun Jig
TTITLE7=Sussex Carol
TTITLE8=Strathban
TTITLE9=St Patrick's Cathedral
TTITLE10=Bidh falbh o'n uinneig
TTITLE11=Earl of Dalhousie
TTITLE12=Mary Scott, Flower of Yarrow
TTITLE13=A Vrigin So Pure
TTITLE14=Coilsfield House
TTITLE15=Comming Through The Rye
TTITLE16=Ye Banks and Braes of Bonny Doune
EXTD=YEAR: 2005
EXTT0=
EXTT1=
EXTT2=
EXTT3=
EXTT4=
EXTT5=
EXTT6=
EXTT7=
EXTT8=
EXTT9=
EXTT10=
EXTT11=
EXTT12=
EXTT13=
EXTT14=
EXTT15=
EXTT16=
PLAYORDER=
